<?xml version="1.0" encoding="utf-8"?>
<!-- Generator: Adobe Illustrator 21.0.0, SVG Export Plug-In . SVG Version: 6.00 Build 0)  -->
<svg version="1.1" id="Слой_1" xmlns="http://www.w3.org/2000/svg" xmlns:xlink="http://www.w3.org/1999/xlink" x="0px" y="0px"
	 viewBox="0 0 448.5 250.5" style="enable-background:new 0 0 448.5 250.5;" xml:space="preserve">
<style type="text/css">
	.st0{fill:none;}
	.st1{fill:#FFFFFF;}
</style>
<g>
	<rect x="0.3" y="150.3" class="st0" width="446" height="59"/>
	<path class="st1" d="M21.8,205.5H9.2v-55.2h21.6c2.1,0,4,0.3,5.8,0.8c1.8,0.5,3.3,1.3,4.8,2.2c1.4,0.9,2.7,2,3.8,3.2
		c1.1,1.2,2,2.6,2.7,4c0.7,1.4,1.3,2.9,1.7,4.4c0.4,1.5,0.6,3,0.6,4.5c0,1.5-0.2,2.9-0.5,4.4c-0.3,1.5-0.8,2.9-1.5,4.3
		c-0.7,1.4-1.6,2.7-2.7,4c-1.1,1.3-2.4,2.5-4,3.6l14.7,19.9H45.6h-0.2c-0.2,0-0.6,0-1.2-0.1c-0.6-0.1-1.2-0.3-1.9-0.5
		s-1.4-0.7-2.2-1.3s-1.5-1.3-2.2-2.3l-9.2-12.5h-6.9V205.5z M31.5,176c0.8,0,1.5-0.2,2.2-0.6c0.7-0.4,1.4-0.9,1.9-1.5
		c0.6-0.6,1-1.3,1.3-2.1c0.3-0.8,0.5-1.6,0.5-2.4c0-0.8-0.2-1.6-0.5-2.4c-0.3-0.8-0.8-1.5-1.3-2.1c-0.6-0.6-1.2-1.1-1.9-1.5
		c-0.7-0.4-1.5-0.6-2.2-0.6h-9.7V176H31.5z"/>
	<path class="st1" d="M58,177.9c0-2.6,0.3-5.1,1-7.5c0.7-2.4,1.6-4.6,2.9-6.7s2.7-4,4.4-5.7c1.7-1.7,3.6-3.2,5.7-4.4
		c2.1-1.2,4.4-2.2,6.8-2.8c2.4-0.7,4.9-1,7.5-1c2.6,0,5.1,0.3,7.5,1c2.4,0.7,4.7,1.6,6.8,2.8c2.1,1.2,4,2.7,5.7,4.4
		c1.7,1.7,3.2,3.6,4.4,5.7c1.2,2.1,2.2,4.3,2.9,6.7c0.7,2.4,1,4.9,1,7.5s-0.3,5.1-1,7.5c-0.7,2.4-1.6,4.6-2.9,6.7
		c-1.2,2.1-2.7,4-4.4,5.7c-1.7,1.7-3.6,3.2-5.7,4.4c-2.1,1.2-4.4,2.2-6.8,2.8c-2.4,0.7-4.9,1-7.5,1c-2.6,0-5.1-0.3-7.5-1
		s-4.7-1.6-6.8-2.8c-2.1-1.2-4-2.7-5.7-4.4c-1.7-1.7-3.2-3.6-4.4-5.7s-2.2-4.3-2.9-6.7S58,180.5,58,177.9z M70.5,177.9
		c0,2.1,0.4,4.1,1.3,6c0.8,1.9,2,3.5,3.4,4.9c1.4,1.4,3.1,2.5,5,3.3c1.9,0.8,3.9,1.2,6,1.2c2.1,0,4.1-0.4,6-1.2
		c1.9-0.8,3.6-1.9,5-3.3c1.4-1.4,2.6-3.1,3.4-4.9c0.8-1.9,1.3-3.9,1.3-6s-0.4-4.1-1.3-6c-0.8-1.9-2-3.5-3.4-4.9
		c-1.4-1.4-3.1-2.5-5-3.3c-1.9-0.8-3.9-1.2-6-1.2c-2.1,0-4.1,0.4-6,1.2c-1.9,0.8-3.6,1.9-5,3.3c-1.4,1.4-2.6,3-3.4,4.9
		C71,173.7,70.5,175.8,70.5,177.9z"/>
	<path class="st1" d="M149.5,205.5h-12.6v-23.4c0-0.5-0.2-1.1-0.5-1.7s-0.7-1.2-1.2-1.8l-20.9-28.3h10.3c1.9,0,3.6,0.4,5,1.1
		c1.4,0.8,2.6,1.8,3.6,3.1l8.7,11.9c0.3,0.4,0.5,0.7,0.6,1c0.2,0.3,0.3,0.6,0.4,0.9c0.1,0.3,0.2,0.6,0.3,0.9
		c0.1-0.3,0.2-0.6,0.3-0.9c0.1-0.3,0.2-0.6,0.4-0.9s0.4-0.7,0.6-1l8.7-11.8c0.9-1.5,2.1-2.6,3.6-3.3c1.5-0.7,3.1-1.1,5-1.1h10.4
		l-21,28.4c-0.5,0.6-0.9,1.2-1.2,1.7c-0.3,0.5-0.5,1.1-0.5,1.7V205.5z"/>
	<path class="st1" d="M189,150.3h10.9l24.1,55.2h-8.1c-0.8,0-1.7-0.1-2.4-0.3c-0.8-0.2-1.5-0.5-2.2-1s-1.3-0.9-1.8-1.5
		c-0.5-0.6-1-1.3-1.3-2.1l-2.7-6.1h-21.9l-2.6,6.1c-0.3,0.7-0.7,1.3-1.3,1.9c-0.6,0.6-1.2,1.1-1.9,1.6s-1.4,0.8-2.2,1
		c-0.8,0.2-1.6,0.4-2.4,0.4h-8.2L189,150.3z M188.5,183h11.8l-4.8-11.6c-0.2-0.5-0.4-1-0.5-1.5c-0.1-0.5-0.2-0.9-0.3-1.2
		c-0.1-0.4-0.2-0.8-0.2-1.2c-0.1,0.4-0.1,0.8-0.2,1.2c-0.1,0.4-0.2,0.8-0.3,1.2s-0.3,0.9-0.5,1.5L188.5,183z"/>
	<path class="st1" d="M229.3,205.5v-55.2h12.6v43.4h21.8v11.8H229.3z"/>
	<path class="st1" d="M311.8,150.3h10.9l24.1,55.2h-8.1c-0.8,0-1.7-0.1-2.4-0.3c-0.8-0.2-1.5-0.5-2.2-1c-0.7-0.4-1.3-0.9-1.8-1.5
		c-0.5-0.6-1-1.3-1.3-2.1l-2.7-6.1h-21.9l-2.6,6.1c-0.3,0.7-0.7,1.3-1.3,1.9c-0.6,0.6-1.2,1.1-1.9,1.6s-1.4,0.8-2.2,1
		c-0.8,0.2-1.6,0.4-2.4,0.4h-8.2L311.8,150.3z M311.3,183h11.8l-4.8-11.6c-0.2-0.5-0.4-1-0.5-1.5c-0.1-0.5-0.2-0.9-0.3-1.2
		c-0.1-0.4-0.2-0.8-0.2-1.2c-0.1,0.4-0.1,0.8-0.2,1.2c-0.1,0.4-0.2,0.8-0.3,1.2c-0.1,0.5-0.3,0.9-0.5,1.5L311.3,183z"/>
	<path class="st1" d="M365.4,205.5h-12.6v-55.2h21.6c2.1,0,4,0.3,5.8,0.8c1.8,0.5,3.3,1.3,4.8,2.2c1.4,0.9,2.7,2,3.8,3.2
		c1.1,1.2,2,2.6,2.7,4s1.3,2.9,1.7,4.4c0.4,1.5,0.6,3,0.6,4.5c0,1.5-0.2,2.9-0.5,4.4s-0.8,2.9-1.5,4.3c-0.7,1.4-1.6,2.7-2.7,4
		s-2.4,2.5-4,3.6l14.7,19.9h-10.5H389c-0.2,0-0.6,0-1.2-0.1c-0.6-0.1-1.2-0.3-1.9-0.5c-0.7-0.3-1.4-0.7-2.2-1.3
		c-0.8-0.6-1.5-1.3-2.2-2.3l-9.2-12.5h-6.9V205.5z M375.1,176c0.8,0,1.5-0.2,2.2-0.6c0.7-0.4,1.4-0.9,1.9-1.5c0.6-0.6,1-1.3,1.3-2.1
		c0.3-0.8,0.5-1.6,0.5-2.4c0-0.8-0.2-1.6-0.5-2.4c-0.3-0.8-0.8-1.5-1.3-2.1c-0.6-0.6-1.2-1.1-1.9-1.5c-0.7-0.4-1.5-0.6-2.2-0.6h-9.7
		V176H375.1z"/>
	<path class="st1" d="M399.7,162.1v-11.8h43.3v11.8h-15.3v43.4H415v-43.4H399.7z"/>
</g>
<g>
	<rect y="229" class="st0" width="446.5" height="21.5"/>
	<path class="st1" d="M9.7,241.9H7v-13h2.7v5.2h0.9c0.4,0,0.8,0,1.1-0.1c0.3-0.1,0.6-0.2,0.8-0.4l3.7-4.7h3.3l-4.8,6.1l2.2,3
		c0.4,0.5,0.8,0.9,1.2,1.1c0.4,0.2,0.8,0.3,1.1,0.3h0.9v2.6h-1.1c-0.3,0-0.7,0-1,0c-0.3,0-0.6-0.1-1-0.2c-0.3-0.1-0.6-0.3-0.9-0.6
		c-0.3-0.3-0.7-0.7-1-1.2l-2.3-3.3c-0.3,0.1-0.7,0.2-1,0.3c-0.4,0-0.7,0.1-1.1,0.1H9.7V241.9z"/>
	<path class="st1" d="M45.3,235.3c0,1.1-0.2,2.1-0.7,2.9c-0.4,0.9-1,1.6-1.7,2.2c-0.7,0.6-1.5,1.1-2.5,1.4c-0.9,0.3-1.9,0.5-2.9,0.5
		c-1,0-1.9-0.2-2.9-0.5c-0.9-0.3-1.7-0.8-2.4-1.3c-0.7-0.6-1.3-1.3-1.7-2.2c-0.4-0.9-0.6-1.8-0.6-2.9c0-1.1,0.2-2.1,0.7-2.9
		c0.4-0.8,1-1.6,1.7-2.1c0.7-0.6,1.5-1,2.5-1.3c0.9-0.3,1.9-0.5,2.8-0.5c1,0,1.9,0.1,2.8,0.4c0.9,0.3,1.7,0.7,2.5,1.3
		s1.3,1.3,1.7,2.1C45,233.2,45.3,234.2,45.3,235.3z M42.5,235.3c0-0.7-0.1-1.3-0.4-1.9s-0.7-1-1.1-1.3s-1-0.6-1.6-0.8
		s-1.2-0.2-1.8-0.2c-0.6,0-1.2,0.1-1.8,0.3c-0.6,0.2-1.1,0.4-1.6,0.8c-0.5,0.4-0.8,0.8-1.1,1.3s-0.4,1.2-0.4,1.9s0.1,1.4,0.4,1.9
		c0.3,0.5,0.7,1,1.1,1.3s1,0.6,1.6,0.8c0.6,0.2,1.2,0.3,1.8,0.3c0.6,0,1.2-0.1,1.8-0.3c0.6-0.2,1.1-0.5,1.6-0.8
		c0.5-0.4,0.8-0.8,1.1-1.4C42.4,236.7,42.5,236,42.5,235.3z"/>
	<path class="st1" d="M58.5,241.9H56v-13h2.5v5.2c0.4-0.2,0.9-0.3,1.5-0.3c0.5,0,1.2,0.1,1.9,0.2c0.7,0.1,1.4,0.2,2,0.2
		c0.3,0,0.6,0,0.8-0.1c0.3,0,0.5-0.1,0.8-0.3V229h2.5v13h-2.5v-5.4c-0.3,0.1-0.5,0.2-0.8,0.3c-0.3,0-0.5,0.1-0.8,0.1
		c-0.7,0-1.4-0.1-2-0.2c-0.6-0.1-1.3-0.2-1.9-0.2c-0.3,0-0.6,0-0.8,0.1c-0.3,0-0.5,0.1-0.8,0.2V241.9z"/>
	<path class="st1" d="M94.8,239.2l-3,6.7h-2.6l1.8-3.9H80.1v-13h2.5v10.2h7.1V229h2.5v10.2H94.8z"/>
	<path class="st1" d="M107.8,239.3h8.1v2.6h-10.7v-13h10.2v2.6h-7.7v3.2c0.6-0.3,1.2-0.5,1.9-0.6c0.7-0.1,1.4-0.1,2.2-0.1h1.9v2.6
		h-1.9c-0.6,0-1.1,0-1.5,0c-0.4,0-0.7,0.1-1,0.1c-0.3,0-0.5,0.1-0.8,0.2c-0.2,0.1-0.5,0.2-0.8,0.4V239.3z"/>
	<path class="st1" d="M126.8,241.9v-13h8.2c0.6,0,1.2,0.1,1.7,0.3s1,0.5,1.3,0.8c0.4,0.4,0.7,0.8,0.9,1.3c0.2,0.5,0.3,1.1,0.3,1.7
		c0,1.3-0.4,2.3-1.2,3.1c-0.8,0.7-2,1.1-3.4,1.1h-1.1c-0.6,0-1.1,0-1.5,0c-0.4,0-0.7,0.1-1,0.1c-0.3,0.1-0.6,0.1-0.8,0.2
		c-0.2,0.1-0.5,0.2-0.8,0.4v3.9H126.8z M129.4,235.4c0.6-0.3,1.2-0.5,1.9-0.6c0.7-0.1,1.4-0.1,2.2-0.1h1.1c0.6,0,1.1-0.1,1.5-0.3
		s0.6-0.6,0.6-1.3c0-0.3-0.1-0.6-0.2-0.8c-0.1-0.2-0.3-0.3-0.5-0.5c-0.2-0.1-0.4-0.2-0.6-0.2c-0.2,0-0.5-0.1-0.8-0.1h-5.2V235.4z"/>
	<path class="st1" d="M155.1,231.5v10.4h-2.6v-10.4h-4.7V229h12.1v2.6H155.1z"/>
	<path class="st1" d="M172.5,241.9h-2.5v-13h2.5v5.2c0.4-0.2,0.9-0.3,1.5-0.3c0.5,0,1.2,0.1,1.9,0.2c0.7,0.1,1.4,0.2,2,0.2
		c0.3,0,0.6,0,0.8-0.1c0.3,0,0.5-0.1,0.8-0.3V229h2.5v13h-2.5v-5.4c-0.3,0.1-0.5,0.2-0.8,0.3c-0.3,0-0.5,0.1-0.8,0.1
		c-0.7,0-1.4-0.1-2-0.2c-0.6-0.1-1.3-0.2-1.9-0.2c-0.3,0-0.6,0-0.8,0.1c-0.3,0-0.5,0.1-0.8,0.2V241.9z"/>
	<path class="st1" d="M208.2,235.3c0,1.1-0.2,2.1-0.7,2.9c-0.4,0.9-1,1.6-1.7,2.2c-0.7,0.6-1.5,1.1-2.5,1.4
		c-0.9,0.3-1.9,0.5-2.9,0.5c-1,0-1.9-0.2-2.9-0.5c-0.9-0.3-1.7-0.8-2.4-1.3c-0.7-0.6-1.3-1.3-1.7-2.2c-0.4-0.9-0.6-1.8-0.6-2.9
		c0-1.1,0.2-2.1,0.7-2.9c0.4-0.8,1-1.6,1.7-2.1c0.7-0.6,1.5-1,2.5-1.3c0.9-0.3,1.9-0.5,2.8-0.5c1,0,1.9,0.1,2.8,0.4
		c0.9,0.3,1.7,0.7,2.5,1.3s1.3,1.3,1.7,2.1C207.9,233.2,208.2,234.2,208.2,235.3z M205.4,235.3c0-0.7-0.1-1.3-0.4-1.9
		s-0.7-1-1.1-1.3s-1-0.6-1.6-0.8s-1.2-0.2-1.8-0.2c-0.6,0-1.2,0.1-1.8,0.3c-0.6,0.2-1.1,0.4-1.6,0.8c-0.5,0.4-0.8,0.8-1.1,1.3
		s-0.4,1.2-0.4,1.9s0.1,1.4,0.4,1.9c0.3,0.5,0.7,1,1.1,1.3s1,0.6,1.6,0.8c0.6,0.2,1.2,0.3,1.8,0.3c0.6,0,1.2-0.1,1.8-0.3
		c0.6-0.2,1.1-0.5,1.6-0.8c0.5-0.4,0.8-0.8,1.1-1.4C205.3,236.7,205.4,236,205.4,235.3z"/>
	<path class="st1" d="M221.4,239.3h8.1v2.6h-10.7v-13h10.2v2.6h-7.7v3.2c0.6-0.3,1.2-0.5,1.9-0.6c0.7-0.1,1.4-0.1,2.2-0.1h1.9v2.6
		h-1.9c-0.6,0-1.1,0-1.5,0c-0.4,0-0.7,0.1-1,0.1c-0.3,0-0.5,0.1-0.8,0.2c-0.2,0.1-0.5,0.2-0.8,0.4V239.3z"/>
	<path class="st1" d="M256.3,228.7h2.8l7,13.3h-2.8l-1-2h-1.6c-0.8,0-1.6,0.1-2.4,0.2c-0.8,0.1-1.5,0.3-2.1,0.5
		c-0.6,0.2-1.2,0.4-1.6,0.6c-0.4,0.2-0.7,0.4-0.8,0.5l-0.1,0.2H251l6.2-11.6L256.3,228.7z M261,237.6l-2.5-4.8l-3.1,5.9
		c0.4-0.2,1.1-0.5,1.9-0.7c0.9-0.3,2-0.4,3.3-0.4H261z"/>
	<path class="st1" d="M277.9,231.5v10.4h-2.5v-13h9.5v2.6H277.9z"/>
	<path class="st1" d="M298,239.3h8.1v2.6h-10.7v-13h10.2v2.6H298v3.2c0.6-0.3,1.2-0.5,1.9-0.6c0.7-0.1,1.4-0.1,2.2-0.1h1.9v2.6H302
		c-0.6,0-1.1,0-1.5,0c-0.4,0-0.7,0.1-1,0.1s-0.5,0.1-0.8,0.2c-0.2,0.1-0.5,0.2-0.8,0.4V239.3z"/>
	<path class="st1" d="M319.5,241.9H317v-13h2.5v5.2c0.4-0.2,0.9-0.3,1.5-0.3c0.5,0,1.2,0.1,1.9,0.2c0.7,0.1,1.4,0.2,2,0.2
		c0.3,0,0.6,0,0.8-0.1c0.3,0,0.5-0.1,0.8-0.3V229h2.6v13h-2.6v-5.4c-0.3,0.1-0.5,0.2-0.8,0.3c-0.3,0-0.5,0.1-0.8,0.1
		c-0.7,0-1.4-0.1-2-0.2c-0.6-0.1-1.3-0.2-1.9-0.2c-0.3,0-0.6,0-0.8,0.1c-0.3,0-0.5,0.1-0.8,0.2V241.9z"/>
	<path class="st1" d="M345.9,231.5v10.4h-2.6v-10.4h-4.7V229h12.2v2.6H345.9z"/>
	<path class="st1" d="M372.5,240.5c-0.7,0.6-1.5,1.1-2.5,1.4c-0.9,0.3-1.9,0.5-2.9,0.5c-1,0-1.9-0.2-2.8-0.5
		c-0.9-0.3-1.7-0.8-2.4-1.3c-0.7-0.6-1.3-1.3-1.7-2.2c-0.4-0.9-0.6-1.8-0.6-2.9c0-1.1,0.2-2.1,0.7-2.9c0.4-0.8,1-1.6,1.7-2.1
		c0.7-0.6,1.5-1,2.5-1.3c0.9-0.3,1.9-0.5,2.8-0.5c0.9,0,1.8,0.1,2.7,0.4c0.8,0.2,1.6,0.6,2.3,1.2l-1.7,2c-0.5-0.3-1-0.6-1.5-0.7
		c-0.6-0.1-1.1-0.2-1.8-0.2c-0.6,0-1.2,0.1-1.8,0.3c-0.6,0.2-1.1,0.4-1.6,0.8c-0.5,0.3-0.8,0.8-1.1,1.3c-0.3,0.5-0.4,1.2-0.4,1.9
		s0.1,1.4,0.4,1.9c0.3,0.5,0.7,1,1.1,1.3c0.5,0.3,1,0.6,1.6,0.8c0.6,0.2,1.2,0.3,1.8,0.3c0.7,0,1.4-0.1,2-0.4c0.7-0.2,1.2-0.6,1.7-1
		L372.5,240.5z"/>
	<path class="st1" d="M388.3,231.5v10.4h-2.6v-10.4H381V229h12.2v2.6H388.3z"/>
	<path class="st1" d="M415.7,237.9c0,1.3-0.4,2.3-1.2,3c-0.8,0.7-1.9,1-3.4,1h-8v-13h8c0.5,0,1,0.1,1.5,0.3c0.5,0.2,0.9,0.4,1.3,0.8
		c0.4,0.3,0.6,0.7,0.8,1.2c0.2,0.4,0.3,0.9,0.3,1.5c0,0.4-0.1,0.8-0.2,1.2c-0.1,0.4-0.3,0.7-0.7,1c0.5,0.3,0.9,0.7,1.1,1.3
		C415.6,236.6,415.7,237.2,415.7,237.9z M405.7,234.5c0.6-0.3,1.2-0.5,1.9-0.6c0.7-0.1,1.4-0.1,2.2-0.1h1.3c0.9,0,1.3-0.4,1.3-1.1
		c0-0.4-0.1-0.6-0.4-0.8c-0.2-0.2-0.6-0.3-0.9-0.3h-5.4V234.5z M405.7,239.3h5.4c0.3,0,0.5,0,0.8-0.1c0.2,0,0.5-0.1,0.6-0.2
		s0.3-0.3,0.5-0.5c0.1-0.2,0.2-0.4,0.2-0.8c0-0.5-0.2-0.8-0.5-1.1c-0.3-0.2-0.8-0.4-1.5-0.4h-1.3c-0.6,0-1.1,0-1.5,0
		c-0.4,0-0.7,0.1-1,0.1c-0.3,0.1-0.5,0.1-0.8,0.2c-0.2,0.1-0.5,0.2-0.8,0.4V239.3z"/>
	<path class="st1" d="M440.8,235.3c0,1.1-0.2,2.1-0.7,2.9c-0.4,0.9-1,1.6-1.7,2.2c-0.7,0.6-1.5,1.1-2.5,1.4s-1.9,0.5-2.9,0.5
		c-1,0-1.9-0.2-2.9-0.5c-0.9-0.3-1.7-0.8-2.4-1.3c-0.7-0.6-1.3-1.3-1.7-2.2c-0.4-0.9-0.6-1.8-0.6-2.9c0-1.1,0.2-2.1,0.7-2.9
		c0.4-0.8,1-1.6,1.7-2.1c0.7-0.6,1.5-1,2.5-1.3c0.9-0.3,1.9-0.5,2.8-0.5c1,0,1.9,0.1,2.8,0.4c0.9,0.3,1.7,0.7,2.5,1.3
		c0.7,0.6,1.3,1.3,1.7,2.1C440.6,233.2,440.8,234.2,440.8,235.3z M438.1,235.3c0-0.7-0.1-1.3-0.4-1.9s-0.7-1-1.1-1.3s-1-0.6-1.6-0.8
		c-0.6-0.2-1.2-0.2-1.8-0.2c-0.6,0-1.2,0.1-1.8,0.3c-0.6,0.2-1.1,0.4-1.6,0.8c-0.5,0.4-0.8,0.8-1.1,1.3c-0.3,0.5-0.4,1.2-0.4,1.9
		s0.1,1.4,0.4,1.9c0.3,0.5,0.7,1,1.1,1.3c0.5,0.3,1,0.6,1.6,0.8c0.6,0.2,1.2,0.3,1.8,0.3c0.6,0,1.2-0.1,1.8-0.3
		c0.6-0.2,1.1-0.5,1.6-0.8c0.5-0.4,0.8-0.8,1.1-1.4C437.9,236.7,438.1,236,438.1,235.3z"/>
</g>
<g>
	<path class="st1" d="M293.4,29.1c-1.3-1-3.1-1-4.4,0l-37.7,28.8L226.6,2c-1.2-2.6-5.5-2.6-6.7,0l-25,56.5l-37.3-29.4
		c-1.3-1-3.1-1-4.4-0.1c-1.3,1-1.8,2.7-1.2,4.2l26,67.1c0.5,1.4,1.9,2.3,3.4,2.3h84c1.5,0,2.9-0.9,3.4-2.3l26-67.1
		C295.2,31.8,294.7,30,293.4,29.1z M223.3,12.4l22.1,50L222.3,80l-21.5-16.9L223.3,12.4z M191.9,65.4l-10.5,23.8L163.5,43
		L191.9,65.4z M186.5,95.4L197.8,70l18.5,14.6l-14.2,10.8H186.5z M214.1,95.4l8.1-6.2l7.8,6.2H214.1z M241.6,95.2l-13.4-10.5
		l20.2-15.4L260,95.4h-18.2C241.7,95.3,241.6,95.3,241.6,95.2z M265.2,89.2l-10.8-24.5l28.8-22L265.2,89.2z M268.5,115.6
		c0,2-1.6,3.6-3.6,3.6h-83.2c-2,0-3.6-1.6-3.6-3.6c0-2,1.6-3.6,3.6-3.6h83.2C266.9,112,268.5,113.6,268.5,115.6z"/>
</g>
<g>
</g>
<g>
</g>
<g>
</g>
<g>
</g>
<g>
</g>
</svg>
